<?xml version="1.0" encoding="UTF-8" standalone="no"?>
<svg
   xmlns:dc="http://purl.org/dc/elements/1.1/"
   xmlns:cc="http://creativecommons.org/ns#"
   xmlns:rdf="http://www.w3.org/1999/02/22-rdf-syntax-ns#"
   xmlns:svg="http://www.w3.org/2000/svg"
   xmlns="http://www.w3.org/2000/svg"
   xmlns:sodipodi="http://sodipodi.sourceforge.net/DTD/sodipodi-0.dtd"
   xmlns:inkscape="http://www.inkscape.org/namespaces/inkscape"
   inkscape:version="1.0 (4035a4fb49, 2020-05-01)"
   sodipodi:docname="logo.svg"
   id="svg20"
   viewBox="0 0 19647.078 4877.948"
   style="clip-rule:evenodd;fill-rule:evenodd;image-rendering:optimizeQuality;shape-rendering:geometricPrecision;text-rendering:geometricPrecision"
   version="1.1"
   height="48.77948mm"
   width="196.47078mm"
   xml:space="preserve"><metadata
   id="metadata24"><rdf:RDF><cc:Work
       rdf:about=""><dc:format>image/svg+xml</dc:format><dc:type
         rdf:resource="http://purl.org/dc/dcmitype/StillImage" /><dc:title></dc:title></cc:Work></rdf:RDF></metadata><sodipodi:namedview
   inkscape:current-layer="svg20"
   inkscape:window-maximized="1"
   inkscape:window-y="-8"
   inkscape:window-x="-8"
   inkscape:cy="92.183431"
   inkscape:cx="385.02342"
   inkscape:zoom="0.63751984"
   showgrid="false"
   id="namedview22"
   inkscape:window-height="715"
   inkscape:window-width="1024"
   inkscape:pageshadow="2"
   inkscape:pageopacity="0"
   guidetolerance="10"
   gridtolerance="10"
   objecttolerance="10"
   borderopacity="1"
   bordercolor="#666666"
   pagecolor="#ffffff" />
 <defs
   id="defs4">
  <style
   id="style2"
   type="text/css">
   <![CDATA[
    .fil1 {fill:#01648C;fill-rule:nonzero}
    .fil0 {fill:#1D678D;fill-rule:nonzero}
    .fil4 {fill:#92B3D0;fill-rule:nonzero}
    .fil3 {fill:#BA5F5A;fill-rule:nonzero}
    .fil2 {fill:#D0948B;fill-rule:nonzero}
   ]]>
  </style>
 </defs>
 <g
   transform="translate(-4662.9221,-8060.9801)"
   id="Camada_x0020_1">
  <metadata
   id="CorelCorpID_0Corel-Layer" />
  <path
   id="path7"
   d="M 10298,9703 V 8279 h -197 v 1424 z m 502,-1017 h -181 v 1017 h 183 v -612 c 0,-195 132,-295 277,-295 165,0 246,100 246,291 v 616 h 183 v -655 c 0,-256 -126,-386 -360,-386 -106,0 -252,49 -348,151 v -126 z m 1558,69 c -53,-53 -151,-94 -250,-94 -179,0 -338,102 -338,262 0,138 102,207 218,291 96,69 201,120 201,238 0,100 -87,144 -173,144 -81,0 -161,-47 -220,-102 l -89,104 c 67,77 197,128 313,128 187,0 356,-116 356,-287 0,-142 -85,-226 -216,-325 -116,-87 -209,-130 -209,-216 0,-85 83,-116 148,-116 55,0 114,16 187,65 l 71,-94 z m 468,-374 -183,61 v 244 h -142 v 106 h 142 v 610 c 0,207 98,325 301,325 69,0 144,-24 207,-65 l -45,-102 c -35,18 -73,35 -140,35 -112,0 -140,-85 -140,-228 v -576 h 266 v -106 h -266 v -305 z m 476,305 v 1017 h 183 V 8686 Z m 92,-212 c 89,0 116,-69 116,-124 0,-51 -43,-108 -116,-108 -73,0 -116,57 -116,108 0,55 26,124 116,124 z m 618,-94 -183,61 v 244 h -142 v 106 h 142 v 610 c 0,207 98,325 301,325 69,0 144,-24 207,-65 l -45,-102 c -35,18 -73,35 -140,35 -112,0 -140,-85 -140,-228 v -576 h 266 v -106 h -266 v -305 z m 1155,1322 h 181 V 8685 h -183 v 594 c 0,197 -116,313 -256,313 -165,0 -246,-102 -246,-293 v -614 h -183 v 655 c 0,256 126,386 360,386 132,0 224,-53 327,-142 z m 482,-1017 v 1017 h 183 V 8685 Z m 92,-212 c 89,0 116,-69 116,-124 0,-51 -43,-108 -116,-108 -73,0 -116,57 -116,108 0,55 26,124 116,124 z m 1123,1045 c -79,51 -161,73 -248,73 -246,0 -354,-199 -354,-411 0,-277 189,-386 356,-386 75,0 151,24 209,53 l 61,-104 c -75,-57 -169,-83 -273,-83 -382,0 -551,277 -551,531 0,120 45,423 356,510 l -87,203 c 122,0 207,18 207,79 0,98 -177,79 -244,77 l -45,85 c 382,41 443,-106 443,-167 0,-124 -128,-163 -216,-163 l 39,-98 c 26,4 57,6 89,6 87,0 207,-35 307,-106 l -51,-102 z m 787,10 c 0,65 4,130 28,173 h 199 c -35,-73 -45,-171 -45,-248 v -447 c 0,-297 -224,-346 -376,-346 -142,0 -246,41 -348,138 l 71,92 c 73,-61 148,-110 266,-110 100,0 195,79 203,203 l -246,77 c -212,63 -362,175 -362,352 0,191 118,313 289,313 94,0 183,-63 254,-134 l 65,-63 z m 0,-423 c 24,317 -142,478 -273,478 -73,0 -146,-67 -146,-173 0,-128 83,-205 244,-254 z m 110,-816 c -31,59 -65,116 -126,116 -39,0 -92,-28 -146,-57 -55,-26 -112,-55 -163,-55 -100,0 -169,73 -222,187 l 81,57 c 35,-65 67,-128 138,-128 65,0 114,26 163,55 49,28 98,57 151,57 89,0 155,-89 199,-179 z m 799,1436 c 301,0 502,-230 502,-545 0,-329 -246,-521 -502,-521 -256,0 -500,191 -500,521 0,315 201,545 500,545 z m 0,-936 c 230,0 305,207 305,391 0,191 -65,415 -305,415 -238,0 -303,-224 -303,-415 0,-183 75,-391 303,-391 z m 2040,-513 h -702 v 1424 h 197 v -598 h 494 v -142 h -494 v -541 h 504 v -142 z m 256,407 v 1017 h 183 V 8683 Z m 92,-212 c 89,0 116,-69 116,-124 0,-51 -43,-108 -116,-108 -73,0 -116,57 -116,108 0,55 26,124 116,124 z m 942,281 c -53,-53 -151,-94 -250,-94 -179,0 -338,102 -338,262 0,138 102,207 218,291 96,69 201,120 201,238 0,100 -87,144 -173,144 -81,0 -161,-47 -220,-102 l -89,104 c 67,77 197,128 313,128 187,0 356,-116 356,-287 0,-142 -85,-226 -216,-325 -116,-87 -209,-130 -209,-216 0,-85 83,-116 148,-116 55,0 114,16 187,65 l 71,-94 z m 972,765 c -79,51 -161,73 -248,73 -246,0 -354,-199 -354,-411 0,-277 189,-386 356,-386 75,0 151,24 209,53 l 61,-104 c -75,-57 -169,-83 -273,-83 -382,0 -551,277 -551,531 0,140 61,535 543,535 87,0 207,-35 307,-106 l -51,-102 z m 787,10 c 0,65 4,130 28,173 h 199 c -35,-73 -45,-171 -45,-248 v -447 c 0,-297 -224,-346 -376,-346 -142,0 -246,41 -348,138 l 71,92 c 73,-61 148,-110 266,-110 100,0 195,79 203,203 l -246,77 c -212,63 -362,175 -362,352 0,191 118,313 289,313 94,0 183,-63 254,-134 l 65,-63 z m 0,-423 c 24,317 -142,478 -273,478 -73,0 -146,-67 -146,-173 0,-128 83,-205 244,-254 z m 661,596 V 8205 h -183 v 1495 z m -14011,2624 v -1424 h -197 v 1424 z m 502,-1017 h -181 v 1017 h 183 v -612 c 0,-195 132,-295 277,-295 165,0 246,100 246,291 v 616 h 183 v -655 c 0,-256 -126,-386 -360,-386 -106,0 -252,49 -348,151 v -126 z m 1424,911 c -193,0 -287,-205 -287,-423 0,-216 87,-382 299,-382 199,0 303,179 303,370 0,226 -94,435 -315,435 z m 315,106 h 183 v -1495 h -183 v 604 h -4 c -63,-98 -187,-151 -325,-151 -279,0 -470,256 -470,521 0,325 175,545 449,545 167,0 275,-85 346,-185 h 4 z m 1285,-496 c 20,-266 -83,-545 -393,-545 -230,0 -482,161 -482,513 0,358 209,553 527,553 106,0 232,-43 338,-118 l -53,-100 c -71,53 -185,87 -279,87 -201,0 -346,-187 -344,-390 h 685 z m -673,-122 c 6,-130 83,-293 279,-293 161,0 228,134 228,293 h -506 z m 1399,513 c -228,0 -317,-187 -317,-382 0,-262 112,-423 319,-423 189,0 283,189 283,374 0,185 -65,431 -285,431 z m -317,-911 h -183 v 1525 h 183 v -643 h 4 c 75,98 185,159 313,159 299,0 482,-254 482,-563 0,-146 -65,-502 -462,-502 -114,0 -258,61 -334,183 h -4 v -159 z m 1837,521 c 20,-266 -83,-545 -393,-545 -230,0 -482,161 -482,513 0,358 209,553 527,553 106,0 232,-43 338,-118 l -53,-100 c -71,53 -185,87 -279,87 -201,0 -346,-187 -344,-390 h 685 z m -673,-122 c 6,-130 83,-293 279,-293 161,0 228,134 228,293 h -506 z m 1080,-399 h -181 v 1017 h 183 v -612 c 0,-195 132,-295 277,-295 165,0 246,100 246,291 v 616 h 183 v -655 c 0,-256 -126,-386 -360,-386 -106,0 -252,49 -348,151 v -126 z m 1424,911 c -193,0 -287,-205 -287,-423 0,-216 87,-382 299,-382 199,0 303,179 303,370 0,226 -94,435 -315,435 z m 315,106 h 183 v -1495 h -183 v 604 h -4 c -63,-98 -187,-151 -325,-151 -279,0 -470,256 -470,521 0,325 175,545 449,545 167,0 275,-85 346,-185 h 4 z m 1285,-496 c 20,-266 -83,-545 -393,-545 -230,0 -482,161 -482,513 0,358 209,553 527,553 106,0 232,-43 338,-118 l -53,-100 c -71,53 -185,87 -279,87 -201,0 -346,-187 -344,-390 h 685 z m -673,-122 c 6,-130 83,-293 279,-293 161,0 228,134 228,293 h -506 z m 1080,-399 h -181 v 1017 h 183 v -612 c 0,-195 132,-295 277,-295 165,0 246,100 246,291 v 616 h 183 v -655 c 0,-256 -126,-386 -360,-386 -106,0 -252,49 -348,151 v -126 z m 1235,-305 -183,61 v 244 h -142 v 106 h 142 v 610 c 0,207 98,325 301,325 69,0 144,-24 207,-65 l -45,-102 c -35,18 -73,35 -140,35 -112,0 -140,-85 -140,-228 v -576 h 266 v -106 h -266 v -305 z m 1281,826 c 20,-266 -83,-545 -393,-545 -230,0 -482,161 -482,513 0,358 209,553 527,553 106,0 232,-43 338,-118 l -53,-100 c -71,53 -185,87 -279,87 -201,0 -346,-187 -344,-390 h 685 z m -673,-122 c 6,-130 83,-293 279,-293 161,0 228,134 228,293 h -506 z"
   class="fil0" />
  <path
   id="path9"
   d="m 7617,9248 h -465 l 147,-733 c 43,-241 330,-94 439,16 0,-7 0,-14 0,-21 6,-132 48,-240 138,-336 45,-42 92,-75 144,-98 -518,-82 -1257,153 -1540,1172 -144,587 -411,2309 -526,2902 -104,435 -331,553 -494,489 v 0 c 158,109 469,73 714,-158 706,-708 760,-2004 943,-2943 h 439 l 60,-290 z m -2338,3013 c 1,-4 1,-8 2,-12 -1,4 -1,8 -2,12 z m 2,-18 c 1,-7 2,-13 3,-20 -1,7 -2,13 -3,20 z"
   class="fil1" />
  <path
   id="path11"
   d="m 5461,12749 c -117,-71 -216,-210 -176,-416 109,-561 235,-1172 387,-1976 h -657 l -330,1629 c -105,523 185,833 438,912 489,135 918,-78 1197,-433 -318,376 -664,404 -860,284 z"
   class="fil1" />
  <path
   id="path13"
   d="m 9068,10785 c -162,466 -871,890 -761,319 109,-561 219,-1051 371,-1855 h -657 l -314,1508 c -266,1332 1170,1056 1546,29 h -186 z"
   class="fil2" />
  <path
   id="path15"
   d="m 8442,8917 c 105,0 195,-33 271,-105 76,-71 119,-157 119,-266 0,-105 -38,-190 -114,-266 -71,-71 -152,-109 -262,-109 -109,0 -195,38 -271,109 -71,76 -105,162 -109,266 0,109 33,195 100,266 71,71 162,105 266,105 z"
   class="fil3" />
  <path
   id="path17"
   d="m 5436,10035 c 105,0 195,-33 271,-105 76,-71 119,-157 119,-266 0,-105 -38,-190 -114,-266 -71,-71 -152,-109 -262,-109 -109,0 -195,38 -271,109 -71,76 -105,162 -109,266 0,109 33,195 100,266 71,71 162,105 266,105 z"
   class="fil4" />
 </g>
</svg>
